<svg viewBox="0 0 24 24" fill="none" xmlns="http://www.w3.org/2000/svg">
<g clip-path="url(#clip0_793_195)">
<path d="M10 7.66533L6.603 10.4453H3V14.4453H6.603L10 17.2253V7.66533ZM5.889 16.4453H2C1.73478 16.4453 1.48043 16.34 1.29289 16.1524C1.10536 15.9649 1 15.7106 1 15.4453V9.44533C1 9.18012 1.10536 8.92576 1.29289 8.73823C1.48043 8.55069 1.73478 8.44533 2 8.44533H5.889L11.183 4.11333C11.2563 4.05328 11.3451 4.01527 11.4391 4.00373C11.5331 3.99218 11.6284 4.00758 11.714 4.04813C11.7996 4.08868 11.872 4.15271 11.9226 4.23277C11.9732 4.31282 12.0001 4.40561 12 4.50033V20.3903C12.0001 20.4851 11.9732 20.5778 11.9226 20.6579C11.872 20.738 11.7996 20.802 11.714 20.8425C11.6284 20.8831 11.5331 20.8985 11.4391 20.8869C11.3451 20.8754 11.2563 20.8374 11.183 20.7773L5.889 16.4453ZM19.406 20.5793L17.99 19.1633C18.938 18.3199 19.6964 17.285 20.2152 16.127C20.734 14.969 21.0015 13.7142 21 12.4453C21.0012 11.1114 20.7054 9.79399 20.1339 8.58871C19.5624 7.38343 18.7296 6.32057 17.696 5.47733L19.116 4.05733C20.3345 5.08888 21.3132 6.37382 21.9841 7.82253C22.6549 9.27124 23.0016 10.8489 23 12.4453C23 15.6683 21.614 18.5673 19.406 20.5793ZM15.863 17.0363L14.441 15.6143C14.9265 15.241 15.3196 14.7611 15.5899 14.2116C15.8602 13.6621 16.0006 13.0577 16 12.4453C16 11.0153 15.25 9.76033 14.12 9.05333L15.559 7.61433C16.3165 8.17152 16.9321 8.89918 17.3562 9.73845C17.7802 10.5777 18.0008 11.505 18 12.4453C18 14.2873 17.17 15.9353 15.863 17.0363Z" fill="currentColor"/>
</g>
<defs>
<clipPath id="clip0_793_195">
<rect width="24" height="24" fill="currentColor"/>
</clipPath>
</defs>
</svg>
